<svg width="200" height="200" viewBox="0 0 200 200" fill="none" xmlns="http://www.w3.org/2000/svg">
<rect width="200" height="200" rx="24" fill="white"/>
<path d="M45.128 62.576L26.48 88.424H44.552V84.824H45.128V89H15.32V82.232L33.968 56.384H15.896V59.984H15.32V55.808H45.128V62.576ZM98.1853 88.424V89H81.8412H78.2413V88.424H81.8412V68.12C81.8412 64.616 81.6012 61.808 81.1212 59.696C80.6892 57.584 79.5852 56.432 77.8092 56.24C74.9292 56.816 72.1212 58.04 69.3852 59.912V88.424H72.9852V89H53.0412V88.424H56.6412V45.44C55.7772 45.536 54.5772 45.584 53.0412 45.584V45.008C56.1612 45.008 59.0412 44.648 61.6812 43.928C64.3212 43.208 66.6972 41.768 68.8092 39.608H69.3852V59.192C71.4492 57.8 73.4412 56.816 75.3612 56.24C77.3292 55.664 79.4413 55.376 81.6973 55.376C85.6812 55.376 88.8253 56.336 91.1293 58.256C93.4333 60.128 94.5853 63.632 94.5853 68.768V88.424H98.1853ZM116.655 74.168C116.655 77.288 117.687 79.544 119.751 80.936C121.815 82.328 124.311 83.024 127.239 83.024C128.871 83.024 130.359 82.832 131.703 82.448C133.095 82.064 134.079 81.584 134.655 81.008H135.303C134.055 83.984 132.063 86.144 129.327 87.488C126.591 88.784 123.543 89.432 120.183 89.432C114.999 89.432 110.991 87.872 108.159 84.752C105.327 81.584 103.911 77.456 103.911 72.368C103.911 67.376 105.303 63.392 108.087 60.416C110.919 57.392 114.879 55.856 119.967 55.808H120.183H120.471C125.607 55.856 129.567 57.392 132.351 60.416C135.135 63.392 136.527 67.376 136.527 72.368H116.655V74.168ZM120.183 56.384C118.839 56.384 117.903 56.888 117.375 57.896C116.895 58.904 116.655 60.656 116.655 63.152V71.792H123.783V63.152C123.783 60.656 123.519 58.904 122.991 57.896C122.463 56.888 121.527 56.384 120.183 56.384ZM188.112 88.424V89H171.768H168.168V88.424H171.768V68.12C171.768 64.616 171.528 61.808 171.048 59.696C170.616 57.584 169.512 56.432 167.736 56.24C164.856 56.816 162.048 58.04 159.312 59.912V88.424H162.912V89H142.968V88.424H146.568V61.64C145.704 61.736 144.504 61.784 142.968 61.784V61.208C146.088 61.208 148.968 60.848 151.608 60.128C154.248 59.408 156.624 57.968 158.736 55.808H159.312V59.192C161.376 57.8 163.368 56.816 165.288 56.24C167.256 55.664 169.368 55.376 171.624 55.376C175.608 55.376 178.752 56.336 181.056 58.256C183.36 60.128 184.512 63.632 184.512 68.768V88.424H188.112Z" fill="black"/>
<path d="M61.256 114.808V115.384H57.656L43.472 152.248C41.552 156.904 39.872 160.48 38.432 162.976C37.04 165.472 35.528 167.272 33.896 168.376C32.312 169.48 30.368 170.032 28.064 170.032C26.24 170.032 24.704 169.528 23.456 168.52C22.208 167.56 21.584 166.216 21.584 164.488C21.584 162.664 22.28 161.248 23.672 160.24C25.112 159.28 27.2 158.8 29.936 158.8C32.528 158.8 34.568 158.656 36.056 158.368C37.544 158.128 38.744 157.648 39.656 156.928C40.616 156.256 41.456 155.248 42.176 153.904L42.896 152.176L44.48 148H31.448L18.92 115.384H15.32V114.808H37.496V115.384H32.6L44.768 147.208L57.008 115.384H51.968V114.808H61.256ZM97.7549 147.424V148H81.4109V143.608C79.8269 144.76 77.8829 145.864 75.5789 146.92C73.3229 147.928 71.0669 148.432 68.8109 148.432C66.5549 148.432 64.6109 147.856 62.9789 146.704C61.3469 145.552 60.5309 143.608 60.5309 140.872C60.5309 138.76 61.0829 137.008 62.1869 135.616C63.2909 134.224 64.6109 133.144 66.1469 132.376C67.7309 131.608 69.7709 130.792 72.2669 129.928C75.1949 128.92 77.4029 127.96 78.8909 127.048C80.3789 126.088 81.2189 124.768 81.4109 123.088C81.4109 120.448 81.1949 118.528 80.7629 117.328C80.3789 116.08 79.3709 115.432 77.7389 115.384C76.3949 115.432 75.3629 115.792 74.6429 116.464C73.9709 117.088 73.6349 118.48 73.6349 120.64C73.5869 122.992 72.9629 124.648 71.7629 125.608C70.5629 126.568 69.2429 127.048 67.8029 127.048C66.5549 127.048 65.4509 126.712 64.4909 126.04C63.5789 125.368 63.1229 124.24 63.1229 122.656C63.1229 120.256 64.4429 118.336 67.0829 116.896C69.7229 115.456 73.0109 114.76 76.9469 114.808H78.7469C83.7389 114.808 87.5549 116.032 90.1949 118.48C92.8349 120.88 94.1549 125.08 94.1549 131.08V147.424H97.7549ZM81.4109 125.104C80.9309 125.92 79.7549 127.216 77.8829 128.992C75.9629 130.768 74.4749 132.376 73.4189 133.816C72.3629 135.256 71.8349 136.84 71.8349 138.568C71.8349 139.864 72.2429 141.016 73.0589 142.024C73.8749 142.984 75.1949 143.464 77.0189 143.464C78.3629 143.464 79.8269 143.2 81.4109 142.672V125.104ZM146.527 147.424V148H130.183H126.583V147.424H130.183V127.12C130.183 123.616 129.943 120.808 129.463 118.696C129.031 116.584 127.927 115.432 126.151 115.24C123.271 115.816 120.463 117.04 117.727 118.912V147.424H121.327V148H101.383V147.424H104.983V120.64C104.119 120.736 102.919 120.784 101.383 120.784V120.208C104.503 120.208 107.383 119.848 110.023 119.128C112.663 118.408 115.039 116.968 117.151 114.808H117.727V118.192C119.791 116.8 121.783 115.816 123.703 115.24C125.671 114.664 127.783 114.376 130.039 114.376C134.023 114.376 137.167 115.336 139.471 117.256C141.775 119.128 142.927 122.632 142.927 127.768V147.424H146.527ZM158.787 139.864C158.835 141.64 159.459 143.104 160.659 144.256C161.859 145.36 163.323 146.224 165.051 146.848C166.827 147.472 169.203 148.144 172.179 148.864C175.443 149.68 178.035 150.448 179.955 151.168C181.923 151.888 183.579 152.92 184.923 154.264C186.315 155.656 187.011 157.48 187.011 159.736C187.011 163.528 185.403 166.12 182.187 167.512C179.019 168.904 175.275 169.6 170.955 169.6C165.483 169.6 161.139 168.976 157.923 167.728C154.707 166.48 153.099 164.8 153.099 162.688C153.099 161.296 153.555 160.288 154.467 159.664C155.427 159.088 156.531 158.8 157.779 158.8C159.219 158.8 160.539 159.208 161.739 160.024C162.939 160.888 163.563 162.376 163.611 164.488C163.611 166.12 164.067 167.248 164.979 167.872C165.939 168.496 167.235 168.856 168.867 168.952L170.955 169.024H171.027C175.539 169.024 179.019 168.424 181.467 167.224C181.467 165.496 180.867 164.08 179.667 162.976C178.515 161.92 177.075 161.08 175.347 160.456C173.619 159.832 171.267 159.136 168.291 158.368C164.979 157.552 162.315 156.76 160.299 155.992C158.283 155.224 156.579 154.12 155.187 152.68C153.795 151.288 153.099 149.464 153.099 147.208C153.099 143.896 154.731 141.28 157.995 139.36C155.979 138.064 154.395 136.48 153.243 134.608C152.091 132.688 151.515 130.648 151.515 128.488C151.515 125.944 152.307 123.592 153.891 121.432C155.523 119.272 157.731 117.568 160.515 116.32C163.347 115.024 166.491 114.376 169.947 114.376C173.835 114.376 177.291 115.168 180.315 116.752C178.779 114.976 178.011 112.84 178.011 110.344C178.011 108.472 178.539 106.984 179.595 105.88C180.651 104.776 181.971 104.224 183.555 104.224C184.899 104.224 185.931 104.608 186.651 105.376C187.371 106.096 187.731 107.08 187.731 108.328C187.731 109.576 187.347 110.488 186.579 111.064C185.811 111.64 184.707 112.168 183.267 112.648C182.163 113.032 181.371 113.344 180.891 113.584C180.411 113.824 180.171 114.208 180.171 114.736C180.171 115.6 181.083 116.824 182.907 118.408C184.635 119.704 185.979 121.24 186.939 123.016C187.947 124.744 188.451 126.568 188.451 128.488C188.451 131.032 187.635 133.408 186.003 135.616C184.419 137.776 182.211 139.504 179.379 140.8C176.547 142.048 173.403 142.672 169.947 142.672C165.771 142.672 162.051 141.736 158.787 139.864ZM175.707 121.72C175.707 117.208 173.787 114.952 169.947 114.952C166.155 114.952 164.259 117.208 164.259 121.72V135.328C164.259 139.84 166.155 142.096 169.947 142.096C173.787 142.096 175.707 139.84 175.707 135.328V121.72Z" fill="black"/>
</svg>
