<svg width="349" height="88" viewBox="0 0 349 88" fill="none" xmlns="http://www.w3.org/2000/svg">
<path d="M34.128 38.576L15.48 64.424H33.552V60.824H34.128V65H4.32V58.232L22.968 32.384H4.896V35.984H4.32V31.808H34.128V38.576ZM85.7453 64.424V65H69.4013H65.8013V64.424H69.4013V44.12C69.4013 40.616 69.1613 37.808 68.6813 35.696C68.2493 33.584 67.1453 32.432 65.3693 32.24C62.4893 32.816 59.6813 34.04 56.9453 35.912V64.424H60.5453V65H40.6013V64.424H44.2013V21.44C43.3373 21.536 42.1373 21.584 40.6013 21.584V21.008C43.7213 21.008 46.6013 20.648 49.2413 19.928C51.8813 19.208 54.2573 17.768 56.3693 15.608H56.9453V35.192C59.0093 33.8 61.0013 32.816 62.9213 32.24C64.8893 31.664 67.0013 31.376 69.2573 31.376C73.2413 31.376 76.3853 32.336 78.6893 34.256C80.9933 36.128 82.1453 39.632 82.1453 44.768V64.424H85.7453ZM102.775 50.168C102.775 53.288 103.807 55.544 105.871 56.936C107.935 58.328 110.431 59.024 113.359 59.024C114.991 59.024 116.479 58.832 117.823 58.448C119.215 58.064 120.199 57.584 120.775 57.008H121.423C120.175 59.984 118.183 62.144 115.447 63.488C112.711 64.784 109.663 65.432 106.303 65.432C101.119 65.432 97.1109 63.872 94.2789 60.752C91.4469 57.584 90.0309 53.456 90.0309 48.368C90.0309 43.376 91.4229 39.392 94.2069 36.416C97.0389 33.392 100.999 31.856 106.087 31.808H106.303H106.591C111.727 31.856 115.687 33.392 118.471 36.416C121.255 39.392 122.647 43.376 122.647 48.368H102.775V50.168ZM106.303 32.384C104.959 32.384 104.023 32.888 103.495 33.896C103.015 34.904 102.775 36.656 102.775 39.152V47.792H109.903V39.152C109.903 36.656 109.639 34.904 109.111 33.896C108.583 32.888 107.647 32.384 106.303 32.384ZM172.792 64.424V65H156.448H152.848V64.424H156.448V44.12C156.448 40.616 156.208 37.808 155.728 35.696C155.296 33.584 154.192 32.432 152.416 32.24C149.536 32.816 146.728 34.04 143.992 35.912V64.424H147.592V65H127.648V64.424H131.248V37.64C130.384 37.736 129.184 37.784 127.648 37.784V37.208C130.768 37.208 133.648 36.848 136.288 36.128C138.928 35.408 141.304 33.968 143.416 31.808H143.992V35.192C146.056 33.8 148.048 32.816 149.968 32.24C151.936 31.664 154.048 31.376 156.304 31.376C160.288 31.376 163.432 32.336 165.736 34.256C168.04 36.128 169.192 39.632 169.192 44.768V64.424H172.792ZM217.951 31.808V32.384H214.351L200.167 69.248C198.247 73.904 196.567 77.48 195.127 79.976C193.735 82.472 192.223 84.272 190.591 85.376C189.007 86.48 187.063 87.032 184.759 87.032C182.935 87.032 181.399 86.528 180.151 85.52C178.903 84.56 178.279 83.216 178.279 81.488C178.279 79.664 178.975 78.248 180.367 77.24C181.807 76.28 183.895 75.8 186.631 75.8C189.223 75.8 191.263 75.656 192.751 75.368C194.239 75.128 195.439 74.648 196.351 73.928C197.311 73.256 198.151 72.248 198.871 70.904L199.591 69.176L201.175 65H188.143L175.615 32.384H172.015V31.808H194.191V32.384H189.295L201.463 64.208L213.703 32.384H208.663V31.808H217.951ZM254.45 64.424V65H238.106V60.608C236.522 61.76 234.578 62.864 232.274 63.92C230.018 64.928 227.762 65.432 225.506 65.432C223.25 65.432 221.306 64.856 219.674 63.704C218.042 62.552 217.226 60.608 217.226 57.872C217.226 55.76 217.778 54.008 218.882 52.616C219.986 51.224 221.306 50.144 222.842 49.376C224.426 48.608 226.466 47.792 228.962 46.928C231.89 45.92 234.098 44.96 235.586 44.048C237.074 43.088 237.914 41.768 238.106 40.088C238.106 37.448 237.89 35.528 237.458 34.328C237.074 33.08 236.066 32.432 234.434 32.384C233.09 32.432 232.058 32.792 231.338 33.464C230.666 34.088 230.33 35.48 230.33 37.64C230.282 39.992 229.658 41.648 228.458 42.608C227.258 43.568 225.938 44.048 224.498 44.048C223.25 44.048 222.146 43.712 221.186 43.04C220.274 42.368 219.818 41.24 219.818 39.656C219.818 37.256 221.138 35.336 223.778 33.896C226.418 32.456 229.706 31.76 233.642 31.808H235.442C240.434 31.808 244.25 33.032 246.89 35.48C249.53 37.88 250.85 42.08 250.85 48.08V64.424H254.45ZM238.106 42.104C237.626 42.92 236.45 44.216 234.578 45.992C232.658 47.768 231.17 49.376 230.114 50.816C229.058 52.256 228.53 53.84 228.53 55.568C228.53 56.864 228.938 58.016 229.754 59.024C230.57 59.984 231.89 60.464 233.714 60.464C235.058 60.464 236.522 60.2 238.106 59.672V42.104ZM303.222 64.424V65H286.878H283.278V64.424H286.878V44.12C286.878 40.616 286.638 37.808 286.158 35.696C285.726 33.584 284.622 32.432 282.846 32.24C279.966 32.816 277.158 34.04 274.422 35.912V64.424H278.022V65H258.078V64.424H261.678V37.64C260.814 37.736 259.614 37.784 258.078 37.784V37.208C261.198 37.208 264.078 36.848 266.718 36.128C269.358 35.408 271.734 33.968 273.846 31.808H274.422V35.192C276.486 33.8 278.478 32.816 280.398 32.24C282.366 31.664 284.478 31.376 286.734 31.376C290.718 31.376 293.862 32.336 296.166 34.256C298.47 36.128 299.622 39.632 299.622 44.768V64.424H303.222ZM315.483 56.864C315.531 58.64 316.155 60.104 317.355 61.256C318.555 62.36 320.019 63.224 321.747 63.848C323.523 64.472 325.899 65.144 328.875 65.864C332.139 66.68 334.731 67.448 336.651 68.168C338.619 68.888 340.275 69.92 341.619 71.264C343.011 72.656 343.707 74.48 343.707 76.736C343.707 80.528 342.099 83.12 338.883 84.512C335.715 85.904 331.971 86.6 327.651 86.6C322.179 86.6 317.835 85.976 314.619 84.728C311.403 83.48 309.795 81.8 309.795 79.688C309.795 78.296 310.251 77.288 311.163 76.664C312.123 76.088 313.227 75.8 314.475 75.8C315.915 75.8 317.235 76.208 318.435 77.024C319.635 77.888 320.259 79.376 320.307 81.488C320.307 83.12 320.763 84.248 321.675 84.872C322.635 85.496 323.931 85.856 325.563 85.952L327.651 86.024H327.723C332.235 86.024 335.715 85.424 338.163 84.224C338.163 82.496 337.563 81.08 336.363 79.976C335.211 78.92 333.771 78.08 332.043 77.456C330.315 76.832 327.963 76.136 324.987 75.368C321.675 74.552 319.011 73.76 316.995 72.992C314.979 72.224 313.275 71.12 311.883 69.68C310.491 68.288 309.795 66.464 309.795 64.208C309.795 60.896 311.427 58.28 314.691 56.36C312.675 55.064 311.091 53.48 309.939 51.608C308.787 49.688 308.211 47.648 308.211 45.488C308.211 42.944 309.003 40.592 310.587 38.432C312.219 36.272 314.427 34.568 317.211 33.32C320.043 32.024 323.187 31.376 326.643 31.376C330.531 31.376 333.987 32.168 337.011 33.752C335.475 31.976 334.707 29.84 334.707 27.344C334.707 25.472 335.235 23.984 336.291 22.88C337.347 21.776 338.667 21.224 340.251 21.224C341.595 21.224 342.627 21.608 343.347 22.376C344.067 23.096 344.427 24.08 344.427 25.328C344.427 26.576 344.043 27.488 343.275 28.064C342.507 28.64 341.403 29.168 339.963 29.648C338.859 30.032 338.067 30.344 337.587 30.584C337.107 30.824 336.867 31.208 336.867 31.736C336.867 32.6 337.779 33.824 339.603 35.408C341.331 36.704 342.675 38.24 343.635 40.016C344.643 41.744 345.147 43.568 345.147 45.488C345.147 48.032 344.331 50.408 342.699 52.616C341.115 54.776 338.907 56.504 336.075 57.8C333.243 59.048 330.099 59.672 326.643 59.672C322.467 59.672 318.747 58.736 315.483 56.864ZM332.403 38.72C332.403 34.208 330.483 31.952 326.643 31.952C322.851 31.952 320.955 34.208 320.955 38.72V52.328C320.955 56.84 322.851 59.096 326.643 59.096C330.483 59.096 332.403 56.84 332.403 52.328V38.72Z" fill="white"/>
</svg>
